<?xml version="1.0" encoding="UTF-8"?>
<svg xmlns:xodm="http://www.corel.com/coreldraw/odm/2003" xmlns="http://www.w3.org/2000/svg" xmlns:xlink="http://www.w3.org/1999/xlink" version="1.1" id="Layer_1" x="0px" y="0px" viewBox="0 0 2500 2500" style="enable-background:new 0 0 2500 2500;" xml:space="preserve">
<style type="text/css">
	.st0{fill:#3AB83A;}
	.st1{fill:#0B8311;}
	.st2{fill:#146714;}
	.st3{fill:none;}
</style>
<g id="Layer_x0020_1">
	<g id="_1355354819424">
		<g>
			<g id="Layer_2_00000143575015829248857910000011415208211104312249_">
				<g id="svg8">
					<g id="layer5">
						<g id="g1627">
							<path id="path1599" class="st0" d="M478.3,1361.5c272,144.4,555.7,295.6,774.9,412.6l768.6-412.6         c-278.3,413.4-510.2,757.6-768.6,1138.5C994.3,2119.9,708.4,1700.5,478.3,1361.5z M507.8,1247.4L1254,849.3l736.5,395.3         l-736.1,398.6L507.8,1247.4L507.8,1247.4z M1253.2,721.7l-774.9,407.9L1249.8,0l772,1132.2L1253.2,721.7z"></path>
							<path id="path1593" class="st1" d="M1253.2,1774.1l768.6-412.6C1743.4,1774.9,1253.2,2500,1253.2,2500V1774.1z M1254,849.3         l736.5,395.3l-736.1,398.6L1254,849.3z M1253.2,721.7L1249.8,0l772,1132.2L1253.2,721.7L1253.2,721.7z"></path>
							<polygon id="path1603" class="st1" points="507.8,1247.5 1254.1,1308.7 1990.5,1244.9 1254.4,1643.6        "></polygon>
							<polygon id="path1606" class="st2" points="1254,1308.7 1990.5,1244.9 1254.4,1643.6        "></polygon>
						</g>
					</g>
				</g>
			</g>
		</g>
		<rect y="0" class="st3" width="2500" height="2500"></rect>
	</g>
</g>
</svg>
