<svg width="24" height="24" viewBox="0 0 24 24" fill="none" xmlns="http://www.w3.org/2000/svg">
<g clip-path="url(#clip0_29_20)">
<path d="M18.375 0H5.625C2.5184 0 0 2.5184 0 5.625V18.375C0 21.4816 2.5184 24 5.625 24H18.375C21.4816 24 24 21.4816 24 18.375V5.625C24 2.5184 21.4816 0 18.375 0Z" fill="#5865F2"/>
<mask id="mask0_29_20" style="mask-type:luminance" maskUnits="userSpaceOnUse" x="2" y="4" width="20" height="16">
<path d="M2.625 4.78125H21.375V19.3059H2.625V4.78125Z" fill="white"/>
</mask>
<g mask="url(#mask0_29_20)">
<path d="M18.4976 6.07472C17.282 5.5167 15.9992 5.11878 14.6812 4.89094C14.6692 4.88872 14.6568 4.89034 14.6458 4.89555C14.6348 4.90077 14.6257 4.90932 14.6198 4.92C14.455 5.21306 14.2724 5.59556 14.1446 5.89612C12.7034 5.68031 11.2697 5.68031 9.8581 5.89612C9.73022 5.58881 9.54103 5.21306 9.37547 4.92C9.36934 4.90954 9.36021 4.90118 9.34925 4.89599C9.3383 4.89081 9.32604 4.88905 9.31407 4.89094C7.99595 5.11832 6.71302 5.51626 5.4976 6.07472C5.48719 6.07913 5.47842 6.08667 5.47247 6.09628C3.04172 9.72778 2.37591 13.27 2.70254 16.7684C2.70344 16.777 2.70607 16.7853 2.71026 16.7928C2.71445 16.8004 2.72011 16.807 2.72691 16.8123C4.3306 17.9901 5.88413 18.7051 7.40878 19.179C7.42065 19.1825 7.4333 19.1824 7.44506 19.1785C7.45683 19.1747 7.46713 19.1673 7.4746 19.1574C7.83525 18.6649 8.15672 18.1456 8.43244 17.5995C8.43624 17.592 8.43841 17.5838 8.4388 17.5754C8.4392 17.5671 8.43781 17.5587 8.43474 17.5509C8.43167 17.5431 8.42697 17.536 8.42097 17.5302C8.41496 17.5243 8.40779 17.5198 8.39991 17.5169C7.88991 17.3234 7.40438 17.0876 6.93732 16.8198C6.92881 16.8148 6.92167 16.8077 6.91652 16.7993C6.91137 16.7909 6.90837 16.7813 6.90778 16.7715C6.9072 16.7616 6.90905 16.7518 6.91317 16.7428C6.91729 16.7338 6.92355 16.726 6.93141 16.72C7.02994 16.6464 7.12678 16.5705 7.22185 16.4924C7.23017 16.4855 7.24025 16.4811 7.25095 16.4796C7.26165 16.4782 7.27255 16.4797 7.28241 16.4842C10.351 17.8852 13.6731 17.8852 16.7054 16.4842C16.7153 16.4795 16.7263 16.4777 16.7372 16.479C16.7481 16.4803 16.7583 16.4847 16.7668 16.4917C16.862 16.5702 16.9591 16.6463 17.058 16.72C17.0659 16.726 17.0722 16.7337 17.0764 16.7427C17.0806 16.7516 17.0825 16.7614 17.082 16.7713C17.0815 16.7811 17.0786 16.7907 17.0735 16.7992C17.0684 16.8076 17.0613 16.8147 17.0528 16.8198C16.5855 17.0926 16.096 17.3256 15.5895 17.5162C15.5816 17.5192 15.5745 17.5238 15.5685 17.5297C15.5626 17.5357 15.558 17.5428 15.555 17.5507C15.552 17.5586 15.5507 17.567 15.5511 17.5754C15.5516 17.5838 15.5539 17.592 15.5577 17.5995C15.8382 18.1413 16.1581 18.6617 16.5147 19.1567C16.522 19.1668 16.5322 19.1744 16.544 19.1784C16.5558 19.1824 16.5686 19.1826 16.5805 19.179C18.1126 18.7051 19.6661 17.9901 21.2699 16.8123C21.2768 16.8072 21.2825 16.8008 21.2867 16.7933C21.2909 16.7859 21.2935 16.7777 21.2943 16.7692C21.6852 12.7247 20.6394 9.2114 18.522 6.09703C18.5168 6.08691 18.5082 6.07899 18.4976 6.07472ZM8.89069 14.6383C7.96678 14.6383 7.20553 13.7902 7.20553 12.7485C7.20553 11.7068 7.95207 10.8587 8.89069 10.8587C9.83663 10.8587 10.5905 11.7143 10.5757 12.7485C10.5757 13.7902 9.82932 14.6383 8.89069 14.6383ZM15.1209 14.6383C14.197 14.6383 13.4359 13.7902 13.4359 12.7485C13.4359 11.7068 14.1823 10.8587 15.1209 10.8587C16.0669 10.8587 16.8207 11.7143 16.806 12.7485C16.806 13.7902 16.0669 14.6383 15.1209 14.6383Z" fill="white"/>
</g>
</g>
<defs>
<clipPath id="clip0_29_20">
<rect width="24" height="24" fill="white"/>
</clipPath>
</defs>
</svg>
