<svg width="26" height="26" viewBox="0 0 26 26" fill="none" xmlns="http://www.w3.org/2000/svg">
<g clip-path="url(#clip0_29_31)">
<path d="M13 0C9.55297 0 6.24406 1.37048 3.80859 3.80758C1.37061 6.24564 0.000675329 9.55212 0 13C0 16.4464 1.37109 19.7553 3.80859 22.1924C6.24406 24.6295 9.55297 26 13 26C16.447 26 19.7559 24.6295 22.1914 22.1924C24.6289 19.7553 26 16.4464 26 13C26 9.55358 24.6289 6.24467 22.1914 3.80758C19.7559 1.37048 16.447 0 13 0Z" fill="url(#paint0_linear_29_31)"/>
<path d="M5.88454 12.8627C9.67485 11.2117 12.2017 10.1231 13.4652 9.59725C17.0767 8.09555 17.8263 7.83473 18.3158 7.8259C18.4234 7.82417 18.6631 7.85078 18.8195 7.97723C18.9495 8.08387 18.9861 8.22809 19.0044 8.32934C19.0206 8.4305 19.043 8.66105 19.0247 8.84102C18.8297 10.8966 17.9827 15.885 17.552 18.1874C17.3713 19.1616 17.0117 19.4882 16.6644 19.5201C15.9088 19.5896 15.3359 19.0212 14.6047 18.5421C13.4611 17.7919 12.8152 17.3251 11.7041 16.5933C10.4203 15.7475 11.2531 15.2825 11.9844 14.5228C12.1753 14.324 15.5025 11.2984 15.5655 11.024C15.5736 10.9897 15.5817 10.8617 15.5045 10.7943C15.4294 10.7266 15.3177 10.7498 15.2364 10.7681C15.1206 10.7941 13.2945 12.0023 9.75204 14.3924C9.23407 14.7487 8.76485 14.9224 8.34235 14.9132C7.87923 14.9033 6.98548 14.6508 6.32126 14.4351C5.50876 14.1704 4.86079 14.0305 4.91766 13.5809C4.9461 13.3469 5.26907 13.1075 5.88454 12.8627Z" fill="white"/>
</g>
<defs>
<linearGradient id="paint0_linear_29_31" x1="1300" y1="0" x2="1300" y2="2600" gradientUnits="userSpaceOnUse">
<stop stop-color="#55ACEF"/>
<stop offset="1" stop-color="#229ED9"/>
</linearGradient>
<clipPath id="clip0_29_31">
<rect width="26" height="26" fill="white"/>
</clipPath>
</defs>
</svg>
