<svg width="26" height="21" viewBox="0 0 26 21" fill="none" xmlns="http://www.w3.org/2000/svg">
<path d="M25.331 2.39946C24.3808 2.81204 23.3755 3.08385 22.3467 3.20631C23.4279 2.57369 24.2409 1.56865 24.6334 0.379703C23.6112 0.976978 22.4948 1.39605 21.3319 1.61898C20.8422 1.10615 20.2533 0.698174 19.6009 0.419858C18.9485 0.141543 18.2463 -0.00130115 17.537 8.93041e-06C14.6651 8.93041e-06 12.341 2.28872 12.341 5.11006C12.3389 5.50249 12.3839 5.89376 12.475 6.27551C10.4156 6.17903 8.3991 5.65407 6.5544 4.73419C4.70969 3.81431 3.07745 2.51978 1.76209 0.933423C1.30063 1.7108 1.05659 2.59777 1.05546 3.50163C1.05546 5.27354 1.98057 6.83978 3.37747 7.75737C2.54985 7.73774 1.73918 7.51885 1.0143 7.11927V7.18255C1.0143 9.66111 2.80858 11.7231 5.18336 12.1924C4.73679 12.3114 4.2766 12.3716 3.81443 12.3717C3.48649 12.3723 3.15929 12.3405 2.8376 12.2768C3.49779 14.3071 5.41926 15.7837 7.69536 15.8259C5.84587 17.2502 3.57517 18.02 1.24017 18.0144C0.825696 18.0138 0.411611 17.9891 0 17.9406C2.37541 19.4563 5.13663 20.258 7.955 20.2504C17.5259 20.2504 22.7547 12.4614 22.7547 5.70597C22.7547 5.48448 22.7489 5.26299 22.7383 5.04678C23.7532 4.32539 24.6312 3.42892 25.331 2.39946Z" fill="#55ACEF"/>
</svg>
